<?xml version="1.0" encoding="utf-8"?>
<!-- Generator: Adobe Illustrator 26.5.0, SVG Export Plug-In . SVG Version: 6.00 Build 0)  -->
<svg version="1.1" id="Layer_1" xmlns="http://www.w3.org/2000/svg" xmlns:xlink="http://www.w3.org/1999/xlink" x="0px" y="0px"
	 viewBox="0 0 1109.38 376.54" style="enable-background:new 0 0 1109.38 376.54;" xml:space="preserve">
<style type="text/css">
	.st0{fill:#00C896;}
	.st1{fill:#FFFFFF;}
	.st2{fill:#003C3C;}
</style>
<g>
	<g>
		<path class="st0" d="M376.54,188.27c0,103.98-84.29,188.27-188.27,188.27C84.29,376.54,0,292.24,0,188.27S84.29,0,188.27,0
			C292.24,0,376.54,84.29,376.54,188.27"/>
		<path class="st1" d="M282.24,114.13V90.8h-24.48c-19.59-14-43.58-22.23-69.5-22.23c-25.92,0-49.91,8.24-69.5,22.23H94.29v23.33
			c-16.11,20.39-25.72,46.14-25.72,74.14c0,40.84,20.46,76.9,51.68,98.5c0.01-0.01,0.01-0.01,0.02-0.02c1.96,1.35,4,2.61,6.14,3.74
			l61.85,32.76l61.85-32.76c2.26-1.2,4.42-2.53,6.48-3.98c0.01,0.01,0.01,0.01,0.02,0.02c31.03-21.63,51.34-57.57,51.34-98.26
			C307.97,160.27,298.35,134.52,282.24,114.13"/>
		<path class="st2" d="M277.28,237.45V96.09H99.26v141.36c0,20.53,11.34,39.37,29.47,48.98l59.53,31.52l59.53-31.52
			C265.93,276.82,277.28,257.98,277.28,237.45 M220.33,283.34c0-3.13,2.55-5.67,5.68-5.67c3.14,0,5.68,2.54,5.68,5.67
			c0,3.14-2.54,5.68-5.68,5.68C222.88,289.02,220.33,286.48,220.33,283.34 M182.3,301.91c0-3.14,2.54-5.68,5.67-5.68
			c3.14,0,5.68,2.54,5.68,5.68c0,3.14-2.54,5.68-5.68,5.68C184.83,307.59,182.3,305.05,182.3,301.91 M164.42,276.23l23.86-12.87
			l23.84,12.87l-23.86,12.63L164.42,276.23z M144.42,283.26c0-3.14,2.54-5.68,5.68-5.68c3.13,0,5.68,2.54,5.68,5.68
			c0,3.13-2.55,5.68-5.68,5.68C146.96,288.94,144.42,286.39,144.42,283.26 M124.97,229.12l41.16,22.27l-24.09,12.99l-1.27-0.67
			c-4.76-2.52-8.76-6.3-11.54-10.93c-2.79-4.63-4.26-9.93-4.26-15.33V229.12z M106.38,225.02c0-3.14,2.54-5.68,5.68-5.68
			c3.13,0,5.68,2.54,5.68,5.68c0,3.13-2.55,5.67-5.68,5.67C108.91,230.68,106.38,228.15,106.38,225.02 M106.38,186.69
			c0-3.14,2.54-5.68,5.68-5.68c3.13,0,5.68,2.54,5.68,5.68c0,3.14-2.55,5.68-5.68,5.68C108.91,192.37,106.38,189.83,106.38,186.69
			 M106.38,148.38c0-3.14,2.54-5.68,5.68-5.68c3.13,0,5.68,2.54,5.68,5.68c0,3.13-2.55,5.67-5.68,5.67
			C108.91,154.04,106.38,151.51,106.38,148.38 M117.9,109.1c0,3.14-2.54,5.68-5.68,5.68c-3.13,0-5.68-2.54-5.68-5.68
			c0-3.13,2.55-5.68,5.68-5.68C115.37,103.42,117.9,105.97,117.9,109.1 M124.11,259.22c0,3.14-2.54,5.68-5.68,5.68
			c-3.14,0-5.68-2.54-5.68-5.68c0-3.13,2.54-5.67,5.68-5.67C121.58,253.55,124.11,256.09,124.11,259.22 M168.45,109.1
			c0,3.14-2.54,5.68-5.68,5.68c-3.13,0-5.67-2.54-5.67-5.68c0-3.13,2.54-5.68,5.67-5.68C165.92,103.42,168.45,105.97,168.45,109.1
			 M219.01,109.1c0,3.14-2.55,5.68-5.68,5.68c-3.14,0-5.68-2.54-5.68-5.68c0-3.13,2.54-5.68,5.68-5.68
			C216.46,103.42,219.01,105.97,219.01,109.1 M251.56,205.27l-63.28,34.14l-63.3-34.24v-83.37h126.58V205.27z M251.56,237.45
			c0,5.4-1.47,10.69-4.25,15.33c-2.78,4.62-6.78,8.4-11.55,10.93l-1.26,0.67l-24.06-12.99l41.13-22.16V237.45z M258.11,253.67
			c3.14,0,5.68,2.54,5.68,5.68c0,3.13-2.54,5.68-5.68,5.68c-3.13,0-5.67-2.55-5.67-5.68C252.45,256.21,254.99,253.67,258.11,253.67
			 M269.56,109.1c0,3.14-2.54,5.68-5.68,5.68c-3.14,0-5.68-2.54-5.68-5.68c0-3.13,2.54-5.68,5.68-5.68
			C267.02,103.42,269.56,105.97,269.56,109.1 M269.56,148.49c0,3.13-2.54,5.68-5.68,5.68c-3.14,0-5.68-2.55-5.68-5.68
			c0-3.14,2.54-5.68,5.68-5.68C267.02,142.82,269.56,145.35,269.56,148.49 M269.56,186.81c0,3.14-2.54,5.68-5.68,5.68
			c-3.14,0-5.68-2.54-5.68-5.68c0-3.13,2.54-5.68,5.68-5.68C267.02,181.13,269.56,183.68,269.56,186.81 M269.56,225.13
			c0,3.13-2.54,5.68-5.68,5.68c-3.14,0-5.68-2.55-5.68-5.68c0-3.14,2.54-5.68,5.68-5.68C267.02,219.46,269.56,221.99,269.56,225.13
			 M188.25,218.61l2.37,1.7h15.77l2.85-1.48V198.9l-1.57-1.57v20.22l-3.88-1.9c-2.44-1.2-4.66-1.78-6.78-1.78
			c-2.13,0-4.35,0.58-6.79,1.78l-2,0.98l-2-0.98c-2.44-1.2-4.66-1.78-6.79-1.78c-2.13,0-4.35,0.58-6.79,1.78l-3.88,1.9v-20.42
			l-1.49,1.75v19.95l2.85,1.48h15.77L188.25,218.61z M202.03,183.27l12.15,9.16c0.82-6.48,1.6-12.87,2.33-18.94l-17.33-13.06
			c0.88,7.28,1.83,14.97,2.82,22.67L202.03,183.27z M219.22,160.77c-1.48,12.69-3.01,25.36-4.65,38.03c8.03,3.94,17.09,3.94,25.12,0
			c-1.63-12.66-3.16-25.34-4.65-38.03C229.78,160.01,224.49,160.01,219.22,160.77 M225.91,172.13c0-0.91,0.27-1.81,0.78-2.56
			c0.18-0.27,0.27-0.39,0.45-0.66c0.17,0.27,0.27,0.39,0.45,0.66c0.51,0.75,0.78,1.65,0.78,2.56v6.18c-0.82,0.01-1.64,0.01-2.46,0
			V172.13z M235.05,159.48c0.77-1.11,1.54-2.21,2.35-3.28c-6.77-1.82-13.77-1.82-20.54,0c0.81,1.08,1.59,2.17,2.36,3.28
			C224.49,158.66,229.78,158.66,235.05,159.48 M227.75,153.47c3.23,0.05,6.51,0.54,9.65,1.49v-6.23c-1.17-0.45-2.34-0.83-3.55-1.15
			c-0.41,0.78-0.81,1.57-1.21,2.36c-0.81-0.15-1.62-0.26-2.44-0.35c-0.41-0.93-0.82-1.85-1.23-2.78c-1.24-0.06-2.45-0.06-3.69,0
			c-0.41,0.93-0.82,1.85-1.23,2.78c-0.82,0.08-1.63,0.2-2.44,0.35c-0.4-0.79-0.8-1.58-1.21-2.36c-1.21,0.32-2.38,0.7-3.55,1.15v6.23
			C220.4,153.89,224.11,153.41,227.75,153.47 M217.29,167.32l-2.16-1.63l-0.55,1.38l-2.02-1.52l-0.81-2.4l-2.02-1.52l-0.81,1.19
			l-2.02-1.52l-0.81-2.4l-2.02-1.52l-0.81,1.19l-2.02-1.52l-0.81-2.4l-2.16-1.65c0,0,0.51,4.23,0.7,5.8l17.69,13.34
			C216.79,171.19,217.29,167.32,217.29,167.32 M196.15,143.94c0.77-1.11,1.54-2.21,2.36-3.28c-6.77-1.82-13.77-1.82-20.54,0
			c0.81,1.07,1.59,2.17,2.36,3.28C185.59,143.11,190.88,143.11,196.15,143.94 M187.62,137.92c3.64-0.06,7.35,0.42,10.88,1.49v-6.23
			c-1.17-0.45-2.34-0.83-3.55-1.15c-0.41,0.78-0.81,1.57-1.21,2.36c-0.81-0.15-1.62-0.26-2.44-0.35c-0.41-0.93-0.82-1.85-1.23-2.78
			c-1.24-0.06-2.45-0.06-3.69,0c-0.41,0.93-0.82,1.85-1.23,2.78c-0.82,0.08-1.63,0.2-2.44,0.35c-0.4-0.79-0.8-1.58-1.21-2.36
			c-1.21,0.32-2.38,0.7-3.55,1.15v6.23C181.11,138.46,184.39,137.97,187.62,137.92 M178.21,152.97l-2.16,1.65l-0.81,2.4l-2.02,1.52
			l-0.81-1.19l-2.02,1.52l-0.81,2.4l-2.02,1.52l-0.81-1.19l-2.02,1.52l-0.81,2.4l-2.02,1.52l-0.55-1.38l-2.16,1.63
			c0,0,0.51,3.87,0.62,4.79l17.69-13.34C177.7,157.2,178.21,152.97,178.21,152.97 M157.28,159.48c0.77-1.11,1.54-2.2,2.36-3.28
			c-6.77-1.82-13.77-1.82-20.54,0c0.81,1.07,1.59,2.17,2.36,3.28C146.72,158.66,152.01,158.66,157.28,159.48 M148.75,153.47
			c3.64-0.06,7.35,0.42,10.88,1.49v-6.23c-1.17-0.45-2.34-0.83-3.55-1.15c-0.41,0.78-0.81,1.57-1.21,2.36
			c-0.81-0.15-1.62-0.26-2.44-0.35c-0.41-0.93-0.82-1.85-1.23-2.78c-1.24-0.06-2.45-0.06-3.69,0c-0.41,0.93-0.82,1.85-1.23,2.78
			c-0.82,0.08-1.63,0.2-2.44,0.35c-0.4-0.79-0.8-1.58-1.21-2.36c-1.21,0.32-2.38,0.7-3.55,1.15v6.23
			C142.24,154.01,145.52,153.52,148.75,153.47 M141.45,160.77c-1.48,12.69-3,25.36-4.65,38.03c8.04,3.94,17.09,3.94,25.12,0
			c-1.64-12.66-3.15-25.34-4.65-38.03C152.01,160.01,146.72,160.01,141.45,160.77 M148.13,172.13c0-0.91,0.27-1.81,0.79-2.56
			c0.17-0.27,0.27-0.39,0.44-0.66c0.19,0.27,0.28,0.39,0.45,0.66c0.51,0.75,0.79,1.65,0.79,2.56v6.18c-0.82,0.01-1.64,0.01-2.47,0
			V172.13z M162.32,192.43l12.15-9.16l0.02-0.17c1-7.7,1.95-15.39,2.82-22.67l-17.33,13.06
			C160.72,179.57,161.5,185.96,162.32,192.43 M186.8,214.44l0.62,0.3v-21.98c-2.87-1.43-5.43-2.1-8-2.1c-2.75,0-5.48,0.77-8.6,2.41
			l-0.72,0.38v21.94l1.94-0.95c2.63-1.29,5.05-1.92,7.38-1.92C181.76,212.52,184.18,213.15,186.8,214.44 M196.99,190.66
			c-2.56,0-5.11,0.67-7.97,2.09v21.98l0.59-0.29c2.63-1.29,5.05-1.92,7.39-1.92c2.34,0,4.75,0.63,7.38,1.91l1.94,0.95v-21.94
			l-0.72-0.38C202.48,191.43,199.74,190.66,196.99,190.66 M188.24,171.49c1.84,1.11,3.33,2.65,4.36,4.47
			c1.02,1.81,1.59,3.87,1.59,6.02v1.91c0.71,0.53,0.99,0.74,1.7,1.27c1.68-0.5,3.31-1.14,4.91-1.92
			c-1.65-12.66-3.16-25.35-4.65-38.02c-5.27-0.77-10.56-0.77-15.83,0c-1.5,12.67-3.01,25.36-4.65,38.02
			c1.6,0.79,3.22,1.43,4.91,1.92c0.71-0.53,1-0.74,1.7-1.27v-1.91C182.3,177.69,184.56,173.7,188.24,171.49 M189.47,162.76
			c-0.82,0.01-1.65,0.01-2.46,0v-6.17c0-0.92,0.27-1.82,0.78-2.56c0.17-0.27,0.27-0.4,0.45-0.66c0.17,0.27,0.27,0.4,0.45,0.66
			c0.51,0.74,0.78,1.64,0.78,2.56V162.76z"/>
		<path class="st2" d="M342.11,218.66c-0.13,0.65-0.45,1.14-0.97,1.47c-0.52,0.33-1.1,0.43-1.73,0.31
			c-0.65-0.13-1.15-0.44-1.49-0.95c-0.35-0.5-0.45-1.08-0.32-1.73c0.13-0.65,0.45-1.14,0.96-1.48c0.51-0.33,1.09-0.43,1.74-0.31
			c0.63,0.13,1.12,0.44,1.48,0.94C342.12,217.43,342.24,218.01,342.11,218.66 M322.35,249.31l1.72-4.07
			c0.43-1.01,1.05-1.67,1.85-1.99c0.81-0.31,1.63-0.29,2.47,0.07c0.94,0.4,1.55,0.99,1.83,1.77c0.29,0.79,0.22,1.69-0.21,2.7
			l-1.71,4.04L322.35,249.31z M342.81,248.88l1.76-4.15l-11.52,3.43c0.36-1.04,0.53-2.04,0.46-3.01c-0.07-1.16-0.43-2.18-1.07-3.07
			c-0.64-0.89-1.54-1.58-2.7-2.07c-1.11-0.47-2.21-0.63-3.3-0.47c-1.09,0.16-2.09,0.61-3,1.35c-0.91,0.74-1.63,1.74-2.17,3
			l-3.18,7.51l20.06,8.49l1.4-3.29l-8.51-3.6l0.36-0.85L342.81,248.88z M326.49,280.69c-0.91,1.36-2.04,2.38-3.39,3.05
			c-1.35,0.67-2.77,0.96-4.27,0.87c-1.5-0.09-2.93-0.59-4.29-1.5l-11.23-7.51l1.99-2.98l11.2,7.49c0.88,0.59,1.77,0.91,2.66,0.97
			c0.89,0.06,1.73-0.11,2.51-0.51c0.78-0.4,1.44-1,1.97-1.79c0.54-0.81,0.84-1.64,0.91-2.5c0.06-0.86-0.11-1.68-0.52-2.48
			c-0.41-0.79-1.04-1.48-1.9-2.06l-11.23-7.5l1.99-2.97l11.25,7.52c1.36,0.91,2.37,2.03,3.03,3.37c0.65,1.34,0.93,2.75,0.84,4.23
			C327.92,277.88,327.41,279.31,326.49,280.69 M311.66,299.78l-15.17-15.63l-1.79,1.73l3.53,15.48l-15.37-4l-1.79,1.73l15.17,15.63
			l2.57-2.49l-9.71-10.01l11.01,2.86l1.79-1.73l-2.52-11.09l9.71,10.01L311.66,299.78z M280.99,325.87l-12.35-17.94l2.95-2.03
			l12.35,17.94L280.99,325.87z M260.85,337.82c-1.47,0.72-2.96,1.03-4.46,0.92c-1.5-0.1-2.88-0.57-4.12-1.4
			c-1.25-0.83-2.23-1.99-2.95-3.46l-5.91-12.15l3.22-1.57l5.89,12.12c0.46,0.95,1.06,1.68,1.81,2.18c0.74,0.5,1.55,0.78,2.43,0.83
			c0.88,0.05,1.74-0.14,2.6-0.56c0.88-0.43,1.56-0.99,2.04-1.7c0.49-0.71,0.75-1.51,0.81-2.4c0.05-0.89-0.15-1.8-0.6-2.74
			l-5.91-12.15l3.22-1.57l5.92,12.17c0.72,1.47,1.02,2.95,0.91,4.44c-0.11,1.48-0.58,2.84-1.41,4.08
			C263.51,336.11,262.35,337.09,260.85,337.82 M231.33,344.31c-0.91,0.92-2.08,1.55-3.51,1.92c-1.05,0.26-2.06,0.32-3.04,0.17
			c-0.98-0.15-1.87-0.47-2.67-0.98c-0.8-0.5-1.5-1.18-2.09-2.03c-0.59-0.84-1.02-1.82-1.3-2.93c-0.38-1.49-0.4-2.87-0.07-4.15
			c0.33-1.28,0.95-2.38,1.87-3.28c0.92-0.91,2.08-1.54,3.49-1.89c1.06-0.27,2.08-0.33,3.05-0.19c0.97,0.14,1.86,0.47,2.67,0.98
			c0.81,0.51,1.51,1.18,2.1,2.01c0.58,0.83,1.01,1.79,1.29,2.9c0.38,1.49,0.4,2.88,0.07,4.17c-0.01,0.05-0.03,0.1-0.05,0.15
			l-4.72-2.81l-1.67,2.8l4.83,2.88C231.5,344.11,231.43,344.21,231.33,344.31 M240.33,345.43l-4.12-2.46
			c0.33-0.82,0.57-1.67,0.71-2.57c0.22-1.46,0.14-2.94-0.24-4.45c-0.38-1.51-1.02-2.85-1.9-4.03c-0.89-1.18-1.95-2.14-3.19-2.88
			c-1.24-0.75-2.58-1.23-4.01-1.46c-1.44-0.22-2.91-0.15-4.42,0.24c-1.51,0.38-2.84,1.01-4,1.89c-1.16,0.88-2.1,1.94-2.82,3.19
			c-0.72,1.24-1.2,2.59-1.42,4.03c-0.22,1.45-0.14,2.93,0.24,4.43c0.38,1.51,1.02,2.85,1.9,4.03c0.89,1.18,1.95,2.14,3.18,2.88
			c1.24,0.75,2.58,1.24,4.03,1.47c1.45,0.23,2.93,0.16,4.44-0.22c1.49-0.38,2.81-1.01,3.96-1.9c0.71-0.55,1.33-1.17,1.87-1.84
			l4.1,2.45L240.33,345.43z M204.88,353.55l-0.17-3.26l-11.06,0.57l-0.32-6.28l10.01-0.52l-0.16-3.14l-10.01,0.52l-0.3-5.81
			l10.91-0.57l-0.17-3.26l-14.48,0.75l1.13,21.75L204.88,353.55z M168.44,353.29c-1.71-0.2-3.12-0.69-4.25-1.45
			c-1.12-0.76-2.08-1.79-2.89-3.1l2.7-2.12c0.49,0.94,1.12,1.7,1.89,2.28c0.77,0.58,1.79,0.95,3.06,1.1c1.2,0.14,2.18,0.01,2.95-0.4
			c0.77-0.41,1.21-1.05,1.31-1.91c0.09-0.72-0.03-1.33-0.34-1.83c-0.32-0.5-0.76-0.93-1.33-1.3c-0.57-0.37-1.21-0.72-1.91-1.04
			c-0.7-0.32-1.4-0.68-2.1-1.07c-0.7-0.39-1.32-0.84-1.87-1.37c-0.55-0.53-0.97-1.17-1.26-1.94c-0.28-0.77-0.36-1.7-0.23-2.82
			c0.15-1.28,0.6-2.33,1.33-3.15c0.73-0.82,1.67-1.4,2.79-1.75c1.13-0.35,2.35-0.44,3.67-0.28c1.42,0.17,2.66,0.6,3.72,1.29
			c1.06,0.69,1.88,1.51,2.48,2.46l-2.7,2.12c-0.53-0.77-1.12-1.37-1.74-1.79c-0.63-0.42-1.38-0.68-2.24-0.78
			c-1.07-0.13-1.94-0.01-2.6,0.35c-0.66,0.36-1.04,0.93-1.13,1.71c-0.08,0.66,0.04,1.21,0.37,1.66c0.32,0.45,0.77,0.84,1.35,1.19
			c0.57,0.35,1.21,0.69,1.91,1.03c0.7,0.33,1.4,0.7,2.09,1.1c0.69,0.4,1.32,0.87,1.87,1.43c0.55,0.56,0.96,1.24,1.24,2.04
			c0.28,0.81,0.35,1.79,0.21,2.94c-0.23,1.94-1.1,3.39-2.6,4.36C172.69,353.22,170.77,353.57,168.44,353.29 M138.24,323.66
			l-12.98,9.16l-2.15-15.74l-2.28-0.99l-8.69,19.97l3.28,1.43l5.56-12.79l1.55,11.27l2.28,0.99l9.3-6.55l-5.56,12.79l3.28,1.43
			l8.69-19.97L138.24,323.66z M110,313.4l1.87-2.68l-11.88-8.32L87.5,320.25l12.01,8.41l1.87-2.68l-9.07-6.35l3.6-5.15l8.21,5.75
			l1.8-2.57l-8.21-5.75l3.34-4.77L110,313.4z M70.73,305.81c-1.1-1.13-1.92-2.37-2.45-3.72c-0.53-1.36-0.77-2.75-0.74-4.18
			c0.04-1.43,0.35-2.81,0.95-4.15c0.59-1.34,1.45-2.55,2.56-3.64c1.11-1.09,2.34-1.91,3.69-2.48c1.35-0.56,2.73-0.85,4.16-0.84
			c1.42,0,2.81,0.28,4.16,0.83c1.35,0.55,2.58,1.39,3.68,2.52c1.23,1.26,2.09,2.55,2.58,3.88c0.48,1.33,0.72,2.69,0.7,4.1
			l-3.43-0.04c0.05-0.95-0.1-1.9-0.46-2.83c-0.36-0.94-0.97-1.84-1.83-2.72c-0.76-0.77-1.58-1.34-2.47-1.72
			c-0.89-0.38-1.81-0.55-2.77-0.54c-0.95,0.02-1.89,0.24-2.82,0.65c-0.93,0.42-1.8,1.02-2.62,1.82c-0.81,0.8-1.44,1.66-1.88,2.58
			c-0.43,0.92-0.67,1.86-0.71,2.81c-0.04,0.95,0.12,1.88,0.48,2.78c0.36,0.9,0.91,1.73,1.67,2.5c0.93,0.95,1.86,1.61,2.8,1.99
			c0.93,0.38,1.88,0.55,2.83,0.51l-0.04,3.43c-1.42,0-2.81-0.28-4.17-0.84C73.24,307.95,71.95,307.05,70.73,305.81 M49.45,279.61
			c-0.9-1.37-1.4-2.81-1.49-4.31c-0.09-1.5,0.19-2.93,0.86-4.27c0.67-1.35,1.69-2.47,3.06-3.37l11.29-7.41l1.97,2.99l-11.26,7.4
			c-0.89,0.58-1.53,1.27-1.93,2.07c-0.41,0.8-0.58,1.64-0.51,2.51c0.07,0.88,0.36,1.71,0.89,2.51c0.54,0.81,1.19,1.42,1.95,1.81
			c0.77,0.39,1.59,0.55,2.48,0.49c0.89-0.06,1.77-0.38,2.63-0.95l11.29-7.42l1.97,2.99l-11.31,7.43c-1.37,0.9-2.8,1.39-4.28,1.47
			c-1.49,0.08-2.89-0.21-4.22-0.87C51.48,282.02,50.36,280.99,49.45,279.61 M54.83,242.74l-1.42-3.29l-20,8.62l5.48,12.72l3-1.29
			l-4.06-9.43L54.83,242.74z M34.47,218.71c-0.13-0.65-0.02-1.23,0.34-1.73c0.36-0.5,0.85-0.82,1.48-0.94
			c0.65-0.13,1.23-0.03,1.74,0.31c0.51,0.33,0.83,0.82,0.96,1.48c0.13,0.65,0.02,1.23-0.32,1.73c-0.34,0.5-0.84,0.82-1.49,0.95
			c-0.63,0.12-1.21,0.02-1.73-0.31C34.92,219.85,34.6,219.36,34.47,218.71 M350.19,185.65c-0.6,0.62-1.36,0.95-2.27,0.98
			c-1.02,0.04-1.82-0.24-2.41-0.83c-0.59-0.59-0.91-1.44-0.95-2.54l-0.15-4.39l6.47-0.23l0.15,4.42
			C351.07,184.17,350.79,185.03,350.19,185.65 M353.86,174.97l-21.77,0.76l0.12,3.58l9.24-0.32l0.03,0.92l-8.97,7.77l0.16,4.51
			l9-7.97c0.11,1.09,0.39,2.07,0.85,2.93c0.55,1.02,1.31,1.79,2.26,2.33c0.95,0.54,2.06,0.78,3.33,0.74
			c1.2-0.04,2.26-0.37,3.19-0.97c0.92-0.6,1.64-1.43,2.15-2.49c0.51-1.06,0.75-2.27,0.7-3.64L353.86,174.97z M331.66,153.8
			l6.14-1.34l2.13,9.79l3.07-0.67l-2.14-9.79l5.69-1.24l2.33,10.67l3.19-0.7l-3.09-14.17L327.71,151l3.12,14.32l3.19-0.7
			L331.66,153.8z M342.02,134.41l3.02-1.25l-6.79-16.42l-3.02,1.25l2.71,6.56l-17.11,7.08l1.37,3.31l17.11-7.08L342.02,134.41z
			 M316.44,103.34l5.35,8.48l2.66-1.68l-5.35-8.48l4.92-3.11l5.83,9.24l2.76-1.74l-7.74-12.26l-18.42,11.62l7.82,12.4l2.76-1.74
			l-5.91-9.37L316.44,103.34z M313.96,79.73l-9.7,1.43l2.07-9.68l-2.87-3.11l-2.64,12.76l-13.6,1.76l2.73,2.95l10.7-1.44
			l-2.52,10.28l2.83,3.06l3.12-13.31l12.61-1.76L313.96,79.73z M285.35,68.87l1.87-2.53l-8.05-5.96l3.47-4.68l8.78,6.5l1.94-2.62
			l-11.65-8.63l-12.97,17.5l11.78,8.73l1.95-2.63l-8.9-6.59l3.74-5.05L285.35,68.87z M256.29,40.31l1.22-3.03l-13.04-5.27
			l-8.16,20.2l3.32,1.34l3.5-8.66l9.23,3.73l1.22-3.03l-9.23-3.73l2.21-5.48L256.29,40.31z M216.26,43.69
			c1.45,0.28,2.78,0.2,3.99-0.24c1.22-0.44,2.25-1.17,3.09-2.2c0.84-1.03,1.41-2.3,1.71-3.81c0.22-1.12,0.24-2.18,0.06-3.17
			c-0.18-1-0.52-1.9-1.04-2.71c-0.52-0.81-1.18-1.48-2-2.02c-0.81-0.54-1.76-0.91-2.84-1.12c-1.42-0.28-2.75-0.2-3.96,0.23
			c-1.21,0.43-2.24,1.16-3.09,2.17c-0.84,1.02-1.41,2.28-1.7,3.79c-0.22,1.12-0.24,2.19-0.07,3.21c0.17,1.02,0.51,1.92,1.02,2.72
			c0.51,0.8,1.18,1.47,2,2.02C214.26,43.1,215.2,43.48,216.26,43.69 M215.67,47.06c-1.53-0.3-2.9-0.86-4.11-1.69
			c-1.21-0.83-2.22-1.84-3.02-3.05c-0.8-1.2-1.35-2.52-1.65-3.97s-0.3-2.93,0-4.46c0.3-1.53,0.85-2.9,1.67-4.11
			c0.82-1.21,1.82-2.23,3-3.05c1.18-0.81,2.49-1.38,3.91-1.68c1.42-0.3,2.9-0.31,4.43-0.01c1.53,0.3,2.89,0.85,4.1,1.67
			c1.2,0.82,2.21,1.82,3.01,3.03c0.8,1.2,1.35,2.53,1.65,3.97c0.3,1.44,0.3,2.93,0,4.45c-0.3,1.53-0.86,2.9-1.68,4.13
			c-0.82,1.22-1.82,2.24-3,3.05c-1.18,0.81-2.49,1.37-3.91,1.68C218.64,47.34,217.18,47.35,215.67,47.06 M186.35,22.03l-4.07,0.29
			l-5.02,9.28l-6.28-8.49l-4.13,0.29l8.84,11.71l0.67,9.46l3.57-0.25l-0.68-9.59L186.35,22.03z M158.98,27.99l-0.77-3.18
			l-17.27,4.16l0.77,3.18l6.9-1.66l4.34,18l3.48-0.84l-4.34-18L158.98,27.99z M134.71,54.45l-7.87-20.31l3.34-1.29l7.87,20.31
			L134.71,54.45z M117.7,62.95c-1.5,0.84-2.93,1.28-4.28,1.33c-1.35,0.05-2.74-0.23-4.16-0.81l0.93-3.3
			c0.95,0.47,1.91,0.71,2.87,0.73c0.96,0.02,2-0.28,3.13-0.91c1.05-0.59,1.77-1.27,2.15-2.06c0.38-0.79,0.36-1.56-0.07-2.32
			c-0.35-0.63-0.81-1.06-1.35-1.27c-0.55-0.21-1.16-0.31-1.85-0.27c-0.68,0.04-1.4,0.13-2.16,0.28c-0.76,0.15-1.53,0.28-2.32,0.37
			c-0.79,0.1-1.56,0.1-2.32,0c-0.76-0.1-1.48-0.37-2.16-0.83c-0.68-0.45-1.29-1.16-1.84-2.14c-0.63-1.12-0.89-2.23-0.78-3.33
			s0.52-2.12,1.23-3.06c0.71-0.94,1.64-1.74,2.8-2.39c1.25-0.7,2.5-1.08,3.76-1.14c1.26-0.06,2.41,0.11,3.45,0.53l-0.93,3.3
			c-0.89-0.31-1.71-0.45-2.46-0.42c-0.76,0.03-1.51,0.26-2.27,0.68c-0.94,0.53-1.57,1.13-1.89,1.81c-0.32,0.68-0.29,1.36,0.1,2.05
			c0.32,0.58,0.75,0.95,1.27,1.12c0.52,0.17,1.12,0.23,1.79,0.17c0.67-0.05,1.39-0.15,2.15-0.3c0.76-0.14,1.54-0.26,2.34-0.35
			c0.79-0.09,1.58-0.07,2.35,0.06c0.77,0.13,1.51,0.43,2.21,0.92c0.7,0.49,1.33,1.24,1.9,2.25c0.95,1.7,1.11,3.39,0.46,5.06
			C121.09,60.4,119.75,61.81,117.7,62.95 M82.48,64.42l3.43-2.79c0.85-0.69,1.71-0.99,2.57-0.89c0.86,0.1,1.58,0.51,2.15,1.22
			c0.64,0.79,0.91,1.6,0.79,2.42c-0.11,0.83-0.6,1.59-1.45,2.28l-3.4,2.77L82.48,64.42z M100.76,73.62l3.5-2.85l-11.79-2.37
			c0.81-0.75,1.42-1.56,1.82-2.44c0.48-1.06,0.64-2.13,0.5-3.21c-0.15-1.08-0.62-2.12-1.42-3.1c-0.76-0.93-1.66-1.58-2.7-1.96
			c-1.04-0.37-2.13-0.44-3.28-0.22c-1.15,0.23-2.26,0.77-3.32,1.64l-6.32,5.15l13.75,16.9l2.78-2.26l-5.83-7.17l0.72-0.58
			L100.76,73.62z M83.17,89.29l-2.5-2.11l-7.14,8.47l-4.81-4.05l6.46-7.66l-2.4-2.02l-6.46,7.66l-4.45-3.75l7.04-8.35l-2.5-2.11
			l-9.34,11.09l16.66,14.04L83.17,89.29z M50.37,95.46l-1.94,3.3l10.54,13.44l-16.84-2.7l-1.97,3.36l23.24,3.43l1.26-2.15
			L50.37,95.46z M54.57,134.48l-20.11-8.37l1.37-3.3l20.11,8.37L54.57,134.48z M50.39,145.49l-21.16-5.19l-0.85,3.48l14.6,3.58
			l-17.34,7.6l-0.59,2.42l21.16,5.19l0.85-3.48l-14.6-3.58l17.34-7.61L50.39,145.49z M44.61,181.57c-0.08,1.64-0.52,3.09-1.33,4.36
			c-0.81,1.27-1.88,2.25-3.21,2.95c-1.33,0.7-2.81,1-4.45,0.93l-13.49-0.64l0.17-3.58l13.46,0.64c1.06,0.05,1.98-0.13,2.78-0.54
			c0.8-0.41,1.43-0.99,1.89-1.73c0.46-0.75,0.71-1.6,0.76-2.55c0.05-0.97-0.13-1.84-0.52-2.61c-0.39-0.77-0.96-1.39-1.72-1.86
			c-0.76-0.47-1.65-0.73-2.69-0.78l-13.49-0.64l0.17-3.57l13.52,0.64c1.64,0.08,3.08,0.52,4.33,1.32c1.25,0.81,2.22,1.87,2.9,3.19
			C44.39,178.42,44.69,179.91,44.61,181.57"/>
	</g>
	<path class="st2" d="M647.82,83.32c0-4.79,3.88-8.67,8.67-8.67c4.79,0,8.67,3.88,8.67,8.67s-3.88,8.67-8.67,8.67
		C651.7,91.99,647.82,88.11,647.82,83.32z M459.6,84.96v53.87c0,26.55,14.88,41.09,41.3,41.09c26.82,0,41.76-14.48,41.76-41.69
		V85.03c0-5.5,2.7-10.66,7.22-13.8l3.84-2.66h-31.83l4.36,2.74c4.9,3.07,7.87,8.44,7.87,14.22v49.82c0,11.54,0,36.56-29.35,36.56
		c-26.89,0-30.29-20.08-30.29-36.56V84.94c0-5.45,2.65-10.57,7.1-13.71l3.76-2.65h-36.63l3.77,2.66
		C456.94,74.37,459.6,79.49,459.6,84.96z M650.09,124.33v38.48c0,4.93-2.17,9.61-5.92,12.8l-2.56,2.18h30.69l-2.82-2.17
		c-4.14-3.18-6.57-8.1-6.57-13.32v-61.77l-21.36,8.41l3.44,3.32C648.24,115.42,650.09,119.78,650.09,124.33z M914.94,173.23
		c-7.87,0-16.98-8.32-19.84-14.8l-9.4,11.03c4.71,5.97,18.12,10.65,27.12,10.65c18.13,0,30.69-8.87,30.69-23.24
		c0-11.89-6.78-17.06-18.13-21.63l-7.79-3.16c-9.2-3.69-15.78-7.46-15.78-14.57c0-7.12,5.34-10.48,12.73-10.44
		c12.38,0.07,18.58,13,18.58,13c2.68-5.14,3.91-7.38,7.04-13.19c-5.68-2.98-14.51-6.69-23.75-6.69c-16.63,0-27.4,8.19-27.4,21.49
		c0,13.23,10.14,18.13,19.75,22.03l8.06,3.29c7.52,3.09,12.93,6.11,12.93,13.5C929.75,169.17,923.88,173.23,914.94,173.23z
		 M686.28,121.5l21.62,56.29c0.12,0.02,9.96,0.02,10.08,0l22.51-56.44c1.49-3.74,3.52-7.23,5.98-10.36
		c2.47-3.14,5.38-5.91,8.67-8.24h-24.57l0.05,0.06c3.3,4.41,4.12,10.2,2.17,15.35l-14.36,38.03c-0.93,2.4-1.66,4.73-2.4,7.07
		c-0.66-2.33-1.4-4.67-2.33-7.07l-14.67-37.98c-0.72-1.88-1.08-3.85-1.08-5.8c0-3.43,1.1-6.83,3.22-9.66H671.6
		C678.25,107.38,683.37,113.91,686.28,121.5z M965.19,91.99c4.79,0,8.67-3.88,8.67-8.67s-3.88-8.67-8.67-8.67
		c-4.79,0-8.67,3.88-8.67,8.67S960.4,91.99,965.19,91.99z M751.55,128.79c4.6-16.27,20.43-28.12,37.07-28.12
		c16.64,0,31.29,11.84,35.89,28.12c0.66,2.33,1.13,4.75,1.37,7.24h-58.67c-0.01,0.11-0.02,0.2-0.02,0.31l-0.02,0.32
		c-0.02,0.27-0.04,0.55-0.05,0.81c-0.01,0.29-0.02,0.59-0.03,0.88c-0.01,0.28-0.01,0.55-0.01,0.83c0,0.28,0,0.55,0.01,0.83
		c0.01,0.27,0.01,0.54,0.02,0.81c0.68,16.19,10.74,29.21,24.09,30.29c0.6,0.05,1.2,0.08,1.81,0.08c11.34,0,21.02-8.59,24.81-20.68
		h7.06c-4.17,17-18.57,29.52-35.68,29.52c-20.38,0-39.25-17.77-39.25-39.68c0-1.46,0.08-2.91,0.22-4.32
		C750.43,133.54,750.89,131.12,751.55,128.79z M768.34,128.79h40.24c-2.95-11.92-9.1-20.66-18.55-21.54
		c-0.52-0.05-1.05-0.08-1.58-0.08C778.32,107.17,771.46,116.21,768.34,128.79z M832.18,175.61l-2.56,2.18h31.64l-3.15-2.2
		c-4.51-3.14-7.19-8.28-7.19-13.78v-36.38c13.47-12.83,29.82-8.26,29.82-8.26V99.9c-22.32,0-30.68,17.71-30.68,17.71l-1.54-17.08
		l-18.19,8.41l3.49,3.89c2.76,3.08,4.29,7.08,4.29,11.21v38.77C838.11,167.74,835.94,172.42,832.18,175.61z M759.11,290.56
		l-15.92-22.89l15.75-19.5c4.1-5.08,8.78-9.67,13.95-13.66l1.99-1.56l-27.1-0.03c4.67,3.99,5.45,10.92,1.77,15.84
		c-3.52,4.71-7.05,9.41-10.56,14.11l-9.88-14.61c-3.22-4.76-2.49-11.16,1.73-15.06l0.3-0.28h-33.52l0.54,0.38
		c6.27,4.42,11.7,9.92,16.05,16.24l16.05,23.33l-15.73,20.01c-4.22,5.36-9.07,10.19-14.46,14.38l-0.9,0.7h27.04l-0.08-0.06
		c-5.08-3.86-6.11-11.08-2.32-16.2c3.5-4.73,7.01-9.47,10.52-14.23l10.78,15.56c3.19,4.6,2.66,10.81-1.27,14.8l-0.13,0.13h33.38
		l-0.14-0.09C769.95,303.31,763.88,297.43,759.11,290.56z M971.59,162.3v-61.77l-21.36,8.41l3.44,3.32
		c3.27,3.16,5.12,7.52,5.12,12.07v38.48c0,4.93-2.17,9.61-5.92,12.8l-2.56,2.18h30.69l-2.82-2.17
		C974.02,172.44,971.59,167.52,971.59,162.3z M918.05,268.45c-0.01,0.28-0.01,0.55-0.01,0.83c0,0.27,0,0.55,0.01,0.83
		c0.01,0.27,0.01,0.54,0.02,0.81c0.68,16.19,10.74,29.21,24.08,30.29c0.6,0.05,1.2,0.08,1.81,0.08c11.34,0,21.02-8.59,24.81-20.67
		h7.06c-4.17,16.99-18.57,29.52-35.68,29.52c-20.38,0-39.25-17.77-39.25-39.68c0-1.46,0.08-2.91,0.22-4.32
		c0.25-2.49,0.71-4.91,1.37-7.24c4.6-16.27,20.43-28.12,37.07-28.12c16.64,0,31.29,11.84,35.89,28.12c0.66,2.33,1.13,4.75,1.37,7.24
		h-58.67c-0.01,0.11-0.02,0.2-0.02,0.31l-0.02,0.32c-0.02,0.27-0.04,0.55-0.05,0.81C918.06,267.86,918.05,268.15,918.05,268.45z
		 M919.29,258.88h40.24c-2.95-11.92-9.1-20.66-18.55-21.54c-0.52-0.05-1.05-0.08-1.58-0.08C929.27,237.26,922.4,246.3,919.29,258.88
		z M1084.64,102.73l0.08,0.07c4.76,4.36,6.46,11.15,4.32,17.25c-4.25,12.04-14.88,42.59-15.88,46.12
		c-0.93-3.4-16.23-45.36-16.23-45.36c-2.38-6.47-0.39-13.74,4.96-18.09l-28.53-0.1l-0.03-0.02h-23.02V75.77l-13.08,11.55v15.29
		h-12.68v7.93h12.68v52.1c0,8.14,4.14,16.55,17.88,16.55c6.27,0,13.34-2.27,19.15-6.94l-1.33-3.73c-16.41,3.8-22.62,1.07-22.62-9.94
		v-48.03h28.41l25.33,67.25h4.82c0,0-10.06,22.24-26.26,22.24l6.23,10.97c14.93-4.27,24.74-26.51,33.32-49.36l17.25-46.04
		c1.38-3.68,3.6-6.98,6.48-9.65l3.48-3.21H1084.64z M877.64,289.03v-47.9h19.25v-8.09h-19.25v-26.81l-13.08,11.55v15.26h-12.67v8.09
		h12.67v51.97c0,8.14,4.14,16.54,17.88,16.54c6.27,0,13.34-2.27,19.15-6.94l-1.33-3.73C883.84,302.77,877.64,300.03,877.64,289.03z
		 M523.62,259.67c0,26.09-20.94,49.63-47.62,49.63c-18.2,0-27.85-9.47-27.85-28.95c0-26.09,20.94-49.64,47.62-49.64
		C513.97,230.71,523.62,240.19,523.62,259.67z M508.56,252.19c0-10.01-3.06-15.61-12.94-15.54c-18.75,0.13-32.4,27.22-32.4,51.17
		c0,10.01,3.06,15.61,12.94,15.54C494.91,303.23,508.56,276.15,508.56,252.19z M1002.92,247.41l-1.54-17.08l-18.19,8.41l3.49,3.89
		c2.77,3.08,4.29,7.08,4.29,11.22v38.77c0,4.93-2.17,9.61-5.92,12.8l-2.56,2.18h31.64l-3.15-2.2c-4.51-3.14-7.19-8.29-7.19-13.78
		v-36.38c13.47-12.83,29.81-8.26,29.81-8.26v-17.28C1011.27,229.69,1002.92,247.41,1002.92,247.41z M543.86,223.72
		c-0.6,3-1.13,6-1.74,9.07h-14.3v7.31l-0.09,0.34h12.96l-12.09,63.87c-2.22,11.68-4.9,21.76-18,36.6l2.75,2.28
		c16.05-9.47,24.65-19.75,27.54-34.72l13.1-68.03l22.62-0.17v-7.49h-21.14c4.16-21.56,5.24-38.82,16.79-38.82
		c3.79,0,10.73,2.25,16.03,6.05l5.16-9.58c-2.44-2.45-9.3-4.34-13.73-4.34C561.93,186.11,548.09,201.43,543.86,223.72z
		 M605.48,175.61l-2.62,2.17h30.29l-2.65-2.17c-3.89-3.19-6.15-7.96-6.15-12.99v-36.95c0-14.75-5.34-25.15-22.55-25.15
		c-9.01,0-17.81,4-24.02,11.61c-0.57-4.04-1.53-11.61-1.53-11.61l-19.63,8.41l3.67,3.69c3.13,3.15,4.88,7.4,4.88,11.84v38.34
		c0,4.93-2.17,9.61-5.93,12.8l-2.56,2.18h30.69l-2.76-2.1c-4.18-3.18-6.63-8.12-6.63-13.37v-40.13c2.08-4.17,9.36-11.26,18.01-11.26
		c12.3,0,15.55,6.07,15.55,17.15v34.62C611.56,167.69,609.33,172.42,605.48,175.61z M790.86,268.45c0,0.28,0,0.55,0,0.83
		c0,0.27,0,0.55,0,0.83c0.01,0.27,0.01,0.54,0.02,0.81c0.68,16.19,10.74,29.21,24.09,30.29c0.6,0.05,1.2,0.08,1.81,0.08
		c11.34,0,21.02-8.59,24.81-20.67h7.06c-4.17,16.99-18.56,29.52-35.68,29.52c-20.38,0-39.25-17.77-39.25-39.68
		c0-1.46,0.08-2.91,0.22-4.32c0.25-2.49,0.71-4.91,1.37-7.24c4.6-16.27,20.43-28.12,37.07-28.12c16.64,0,31.29,11.84,35.89,28.12
		c0.66,2.33,1.13,4.75,1.37,7.24h-58.67c-0.01,0.11-0.02,0.2-0.02,0.31l-0.02,0.32c-0.02,0.27-0.04,0.55-0.05,0.81
		C790.88,267.86,790.87,268.15,790.86,268.45z M792.1,258.88h40.24c-2.95-11.92-9.1-20.66-18.55-21.54
		c-0.52-0.05-1.05-0.08-1.58-0.08C802.08,237.26,795.22,246.3,792.1,258.88z M654.88,300.9c-4.17,0-9.67-0.01-16.73-0.01l0.21-48.57
		h13.82c5.06,0,10.11,0.57,15.05,1.68l14.23,3.23v-15.43l-14.98,3.13c-4.58,0.96-9.25,1.44-13.94,1.44h-14.39v-41.3
		c7.94,0,14.04,0.02,18.48,0.03c6.09,0.02,12.09,1.43,17.56,4.11l16.76,8.22l-1.71-18.71h-76.99l3.82,2.66
		c4.51,3.14,7.2,8.29,7.2,13.79l-0.05,76.36c0,5.47-2.68,10.6-7.16,13.74l-3.8,2.66h79.46l1.34-19.52l-17.07,7.85
		C669.35,299.34,662.16,300.91,654.88,300.9z"/>
</g>
</svg>
